<svg width="77" height="24" viewBox="0 0 77 24" fill="none" xmlns="http://www.w3.org/2000/svg">
<path d="M24.4601 23.0001H19.8101V8.90011L14.2601 23.0001H10.4201L4.87006 9.08011V23.0001H0.370056V1.73011H6.55006L12.4001 16.1001L17.9501 1.73011H24.4601V23.0001Z" fill="black"/>
<path d="M31.4845 13.7601H37.4545C37.4145 13.0801 37.1445 12.4901 36.6445 11.9901C36.1645 11.4901 35.4345 11.2401 34.4545 11.2401C33.5745 11.2401 32.8745 11.5001 32.3545 12.0201C31.8345 12.5401 31.5445 13.1201 31.4845 13.7601ZM37.7845 17.6301L41.5945 18.7101C41.2145 20.0901 40.4245 21.2301 39.2245 22.1301C38.0245 23.0101 36.5245 23.4501 34.7245 23.4501C32.5645 23.4501 30.7245 22.7301 29.2045 21.2901C27.7045 19.8501 26.9545 17.9201 26.9545 15.5001C26.9545 13.1801 27.6845 11.2901 29.1445 9.83011C30.6245 8.37011 32.3745 7.64011 34.3945 7.64011C36.7145 7.64011 38.5345 8.32011 39.8545 9.68011C41.1945 11.0201 41.8645 12.8901 41.8645 15.2901C41.8645 16.0501 41.8345 16.5201 41.7745 16.7001H31.3945C31.4345 17.5201 31.7845 18.2101 32.4445 18.7701C33.1045 19.3101 33.8845 19.5801 34.7845 19.5801C36.3245 19.5801 37.3245 18.9301 37.7845 17.6301Z" fill="black"/>
<path d="M58.8623 1.28011V20.3301C58.8623 21.2301 58.9023 22.1201 58.9823 23.0001H54.6023C54.5223 22.5201 54.4823 22.0401 54.4823 21.5601C54.1223 22.0801 53.5823 22.5101 52.8623 22.8501C52.1623 23.1701 51.3723 23.3301 50.4923 23.3301C48.3723 23.3301 46.6123 22.6001 45.2123 21.1401C43.8123 19.6601 43.1123 17.7801 43.1123 15.5001C43.1123 13.2601 43.7923 11.4101 45.1523 9.95011C46.5123 8.47011 48.2423 7.73011 50.3423 7.73011C52.3823 7.73011 53.7223 8.24011 54.3623 9.26011V1.28011H58.8623ZM48.6623 12.8001C48.0223 13.4401 47.7023 14.3501 47.7023 15.5301C47.7023 16.7101 48.0223 17.6301 48.6623 18.2901C49.3223 18.9301 50.1223 19.2501 51.0623 19.2501C52.0023 19.2501 52.7923 18.9301 53.4323 18.2901C54.0923 17.6301 54.4223 16.7101 54.4223 15.5301C54.4223 14.3501 54.0923 13.4401 53.4323 12.8001C52.7923 12.1601 52.0023 11.8401 51.0623 11.8401C50.1223 11.8401 49.3223 12.1601 48.6623 12.8001Z" fill="black"/>
<path d="M66.9316 23.0001H62.3716V8.09011H66.9316V23.0001ZM62.7616 5.42011C62.2416 4.90011 61.9816 4.27011 61.9816 3.53011C61.9816 2.79011 62.2416 2.16011 62.7616 1.64011C63.2816 1.12011 63.9016 0.860107 64.6216 0.860107C65.3616 0.860107 65.9916 1.12011 66.5116 1.64011C67.0516 2.16011 67.3216 2.79011 67.3216 3.53011C67.3216 4.27011 67.0516 4.90011 66.5116 5.42011C65.9916 5.94011 65.3616 6.20011 64.6216 6.20011C63.9016 6.20011 63.2816 5.94011 62.7616 5.42011Z" fill="black"/>
<path d="M71.0463 22.3701C70.4463 21.7501 70.1463 21.0201 70.1463 20.1801C70.1463 19.3401 70.4463 18.6201 71.0463 18.0201C71.6463 17.4201 72.3663 17.1201 73.2063 17.1201C74.0463 17.1201 74.7663 17.4201 75.3663 18.0201C75.9863 18.6201 76.2963 19.3401 76.2963 20.1801C76.2963 21.0001 75.9863 21.7201 75.3663 22.3401C74.7663 22.9601 74.0463 23.2701 73.2063 23.2701C72.3663 23.2701 71.6463 22.9701 71.0463 22.3701Z" fill="black"/>
</svg>
